<?xml version="1.0" encoding="UTF-8" standalone="no"?>
<svg width="720px" height="1280px" viewBox="0 0 720 1280" version="1.1" xmlns="http://www.w3.org/2000/svg" xmlns:xlink="http://www.w3.org/1999/xlink" xmlns:sketch="http://www.bohemiancoding.com/sketch/ns">
    <!-- Generator: Sketch 3.5.2 (25235) - http://www.bohemiancoding.com/sketch -->
    <title>Slice 2</title>
    <desc>Created with Sketch.</desc>
    <defs>
        <path id="path-1" d="M0,0.716 L23.923,0.716 L23.923,25 L0,25"></path>
        <path id="path-3" d="M38.2827939,22 L65.1379898,22 L65.1379898,50 L38.2827939,50"></path>
        <path id="path-5" d="M0,1.22472727 L30.8712727,1.22472727 L30.8712727,32 L0,32 L0,1.22472727 Z"></path>
    </defs>
    <g id="Page-1" stroke="none" stroke-width="1" fill="none" fill-rule="evenodd" sketch:type="MSPage">
        <g id="客户签名" sketch:type="MSArtboardGroup">
            <g id="actionbar" sketch:type="MSLayerGroup">
                <rect id="Rectangle-11" fill="#0096A9" sketch:type="MSShapeGroup" x="0" y="0" width="720" height="160"></rect>
                <g id="Page-1" transform="translate(587.000000, 94.000000)">
                    <mask id="mask-2" sketch:name="Clip 2" fill="white">
                        <use xlink:href="#path-1"></use>
                    </mask>
                    <g id="Clip-2"></g>
                </g>
            </g>
            <rect id="Rectangle-13" fill="#F9F9F9" sketch:type="MSShapeGroup" x="0" y="160" width="720" height="1120"></rect>
            <g id="Statusbar" sketch:type="MSLayerGroup">
                <g id="Battery" transform="translate(603.000000, 10.000000)" sketch:type="MSShapeGroup">
                    <path d="M4.70592193,1.00898305 C2.08068069,1.16524593 0,3.34059606 0,5.99767164 L0,22.0023284 C0,24.7624662 2.23993443,27 5.00861359,27 L11.9913864,27 C14.7575673,27 17,24.7607516 17,22.0023284 L17,5.99767164 C17,3.3190546 14.8904248,1.1326272 12.2352778,1.00581135 C12.2352887,1.0038756 12.2352941,1.00193848 12.2352941,1 C12.2352941,0.44771525 11.7868437,0 11.2354464,0 L5.7057301,0 C5.15352944,0 4.70588235,0.443864822 4.70588235,1 C4.70588235,1.00299745 4.70589556,1.00599182 4.70592193,1.00898305 Z" id="Rectangle-2" opacity="0.356984608" fill="#D8D8D8"></path>
                    <path d="M0,7 L0,8 L17,8 L17,7 L0,7 Z M0,13 L0,14 L17,14 L17,13 L0,13 Z M0,19 L0,20 L17,20 L17,19 L0,19 Z" id="Rectangle-4" opacity="0.1" fill="#FFFFFF"></path>
                    <rect id="Rectangle-7" opacity="0.9" fill-opacity="0.9" fill="#FFFFFF" x="0" y="14" width="17" height="13" rx="6"></rect>
                </g>
                <text id="12:30" sketch:type="MSTextLayer" font-family=".AppleSystemUIFont" font-size="26" font-weight="normal" fill="#FFFFFF">
                    <tspan x="637" y="34">12:30</tspan>
                </text>
                <g id="Signal-" transform="translate(552.000000, 12.000000)" sketch:type="MSShapeGroup">
                    <path d="M0,24 L24,24 L24,0 L0,24 Z" id="Rectangle-8" fill-opacity="0.3" fill="#D8D8D8"></path>
                    <path d="M0,24 L12,24 L12,12 L0,24 Z" id="Rectangle-9" fill="#FFFFFF"></path>
                </g>
                <g id="wifi" transform="translate(502.000000, 12.000000)" fill="#FFFFFF" sketch:type="MSShapeGroup">
                    <path d="M14,0 L28,20 C28,20 23.7199039,23.8939133 14,23.8939133 C4.28009605,23.8939133 0,20 0,20 L14,0 Z" id="Triangle-1" fill-opacity="0.3" transform="translate(14.000000, 12.000000) scale(1, -1) translate(-14.000000, -12.000000) "></path>
                    <path d="M14,7 L24,21.1666667 C24,21.1666667 20.9427885,23.9248552 14,23.9248552 C7.05721147,23.9248552 4,21.1666667 4,21.1666667 L14,7 Z" id="Triangle-2" transform="translate(14.000000, 15.500000) scale(1, -1) translate(-14.000000, -15.500000) "></path>
                </g>
            </g>
            <g id="Page-1" sketch:type="MSLayerGroup" transform="translate(26.000000, 70.000000)">
                <rect id="Rectangle-11" fill="#00ADC3" sketch:type="MSShapeGroup" x="0" y="0" width="601" height="66"></rect>
                <mask id="mask-4" sketch:name="Clip 2" fill="white">
                    <use xlink:href="#path-3"></use>
                </mask>
                <g id="Clip-2"></g>
                <text id="达飞电子签名系统（手机端）" sketch:type="MSTextLayer" font-family=".PingFang SC" font-size="26" font-weight="normal" fill="#FFFFFF">
                    <tspan x="89" y="41">达飞电子签名系统（手机端）</tspan>
                </text>
                <path d="M576.194204,33.2198979 C576.194204,40.3814034 570.272706,46.2111678 563.00188,46.2111678 C555.732307,46.2111678 549.815826,40.3814034 549.815826,33.2198979 C549.815826,26.0559216 555.732307,20.2298633 563.00188,20.2298633 C566.842953,20.2298633 570.46081,21.8840389 572.953808,24.7044144 L568.352797,24.7044144 C567.848679,24.7044144 567.444884,25.1009718 567.444884,25.5963597 C567.444884,26.0855707 567.848679,26.4932466 568.352797,26.4932466 L574.61288,26.4932466 C574.695646,26.4858343 574.714456,26.4932466 574.735775,26.4932466 C575.233622,26.4932466 575.641179,26.0855707 575.641179,25.5963597 L575.641179,18.8919453 C575.641179,18.395322 575.233622,18 574.735775,18 C574.237927,18 573.825354,18.395322 573.825354,18.8919453 L573.825354,23.0008236 C571.021358,20.118679 567.123854,18.4410311 562.999372,18.4410311 C554.727834,18.4410311 548,25.0700873 548,33.2198979 C548,41.37465 554.727834,48 562.999372,48 C571.274671,48 577.999997,41.3709438 577.999997,33.2198979 C578.001251,32.7257453 577.599964,32.3279526 577.095846,32.3279526 C576.597999,32.3279526 576.194204,32.7282161 576.194204,33.2198979 Z" id="Fill-1" fill="#FDFDFF" sketch:type="MSShapeGroup"></path>
                <path d="M59.5656814,40.485 C57.9112095,42.21 55.8404821,43.345 53.5904003,43.789 C53.9097853,42.966 54.4775809,42.236 55.0041346,41.812 C55.4625911,41.444 56.0361414,40.735 56.2749608,40.173 C56.5147394,39.612 56.831247,39.126 57.1515911,38.61 C57.6081295,37.877 56.0275094,36.771 55.5153424,36.539 C54.3624872,36.017 53.495448,35.313 52.4711141,34.562 C51.7412283,34.026 50.2593969,34.841 49.4355179,34.466 C48.3066405,33.952 47.3772589,33.06 46.3960852,32.289 C45.3842198,31.495 45.4331346,30.568 45.4331346,29.395 C46.2253629,29.426 47.3532811,29.167 47.8798348,29.831 C48.0457615,30.041 48.6173935,30.979 48.999121,30.645 C49.3117922,30.373 48.7679744,29.283 48.663431,29.026 C48.3402095,28.238 49.3990716,27.93 49.940971,27.395 C50.6487973,26.698 52.167075,25.604 52.0471857,25.104 C51.9263373,24.604 50.5279489,23.187 49.7069472,23.408 C49.5832215,23.441 48.4994225,24.626 48.2903356,24.812 C48.2960903,24.425 48.3008859,24.039 48.3066405,23.652 C48.310477,23.408 47.8702436,23.157 47.890385,23 C47.9421772,22.601 49.0048756,21.879 49.2695911,21.562 C49.0844821,21.441 48.4524259,20.875 48.2606031,20.958 C47.7973509,21.16 47.2746337,21.298 46.8113816,21.5 C46.8113816,21.332 46.7921993,21.175 46.7691806,21.019 C47.696644,20.591 48.6787768,20.293 49.6935196,20.134 L50.6027598,20.515 L51.2453663,21.309 L51.8860545,21.998 L52.4452181,22.186 L53.335276,21.312 L53.1060477,20.687 L53.1060477,20.126 C54.865063,20.392 56.5262487,21.077 57.9812249,22.132 C57.7213049,22.156 57.4345298,22.196 57.1122675,22.239 C56.9789506,22.157 56.8082283,22.119 56.6624429,22.062 C57.0844532,23.007 57.5237274,23.939 57.9706746,24.872 C58.4483135,25.868 59.5062164,26.937 59.6922845,27.988 C59.9119216,29.228 59.7594225,30.354 59.8793118,31.812 C59.9953646,33.217 61.3985486,34.812 61.3985486,34.812 C61.3985486,34.812 62.0459506,35.042 62.5849727,34.962 C62.0823969,37.034 61.0532675,38.934 59.5656814,40.485 M50.0359233,43.913 C47.4885162,43.595 45.1310136,42.406 43.2885554,40.485 C41.1152027,38.218 39.9182283,35.205 39.9182283,32 C39.9182283,29.114 40.8888518,26.385 42.6680085,24.215 C42.714046,24.788 42.8272215,25.403 42.798448,25.842 C42.6919864,27.444 42.5404463,28.446 43.4400954,29.797 C43.7901721,30.324 43.8764923,31.078 44.0462555,31.687 C44.2131414,32.283 44.8797257,32.596 45.3391414,32.963 C46.2656457,33.704 47.1528262,34.565 48.1359182,35.217 C48.7842794,35.648 49.1899847,35.862 48.999121,36.687 C48.8466218,37.351 48.8044208,37.76 48.4744855,38.351 C48.3737785,38.532 48.8542947,39.692 49.0135077,39.858 C49.4978603,40.363 49.9783765,40.826 50.5058893,41.28 C51.3240136,41.985 50.4262828,42.9 50.0359233,43.913 M53,18 C44.7157143,18 38,24.7157143 38,33 C38,41.2842857 44.7157143,48 53,48 C61.2842857,48 68,41.2842857 68,33 C68,24.7157143 61.2842857,18 53,18" id="Fill-1" fill="#FDFDFF" sketch:type="MSShapeGroup"></path>
            </g>
            <g id="Page-1" sketch:type="MSLayerGroup" transform="translate(664.000000, 88.000000)">
                <mask id="mask-6" sketch:name="Clip 2" fill="white">
                    <use xlink:href="#path-5"></use>
                </mask>
                <g id="Clip-2"></g>
                <path d="M1.71505455,10.5613091 L1.71505455,30.2849455 L27.4416,30.2849455 L27.4401455,16.7562182 L29.1565091,14.8493091 L29.1565091,30.2849455 C29.1565091,31.3729455 28.5194182,31.9998545 27.4416,31.9998545 L1.71650909,31.9998545 C0.638690909,31.9998545 0.000145454545,31.5824 0.000145454545,30.4944 L0.000145454545,10.5613091 C0.000145454545,9.47330909 0.637236364,8.8464 1.71505455,8.8464 L11.1477818,8.8464 L9.43287273,10.5613091 L1.71505455,10.5613091 Z M26.1543273,14.3664 C25.9637818,14.5598545 25.6306909,14.6209455 25.3819636,14.6209455 C25.1317818,14.6209455 24.8452364,14.5598545 24.6532364,14.3664 C24.2736,13.9824 24.2736,13.2464 24.6532364,12.8624 L27.4416,8.8464 C27.1448727,8.84785455 26.8874182,8.8464 26.5834182,8.8464 C18.4306909,8.8464 11.6583273,13.8762182 10.2910545,21.7089455 L8.57614545,21.7089455 C9.98123636,12.7809455 16.4859636,7.13149091 25.7266909,7.13149091 L27.4416,7.13149091 L23.7965091,3.01658182 C23.4154182,2.63112727 23.4154182,1.89803636 23.7965091,1.51403636 C24.1761455,1.12858182 24.9150545,1.12858182 25.2961455,1.51403636 L30.8714182,7.98821818 L26.1543273,14.3664 Z" id="Fill-1" fill="#FDFDFF" sketch:type="MSShapeGroup" mask="url(#mask-6)"></path>
            </g>
            <g id="销售签字" sketch:type="MSLayerGroup" transform="translate(178.000000, 195.000000)" font-family=".PingFang SC" fill="#2B2929" font-weight="420">
                <text id="－销售签字" sketch:type="MSTextLayer" font-size="48">
                    <tspan x="85" y="41">－销售签字</tspan>
                </text>
                <text id="100" sketch:type="MSTextLayer" font-size="50">
                    <tspan x="0" y="43">100</tspan>
                </text>
            </g>
            <text id="客户姓名：张威军-11176930001" sketch:type="MSTextLayer" font-family=".PingFang SC" font-size="30" font-weight="normal" fill="#7E7E7E">
                <tspan x="56" y="1115">客户姓名：张威军 11176930001</tspan>
            </text>
            <path d="M32.5,286.5 L688.5,286.5" id="Line" stroke="#A4A3A3" stroke-linecap="square" sketch:type="MSShapeGroup"></path>
            <path d="M32.5,1063.5 L688.5,1063.5" id="Line-Copy" stroke="#A4A3A3" stroke-linecap="square" sketch:type="MSShapeGroup"></path>
            <rect id="Rectangle-12" stroke="#979797" fill="#FFFFFF" sketch:type="MSShapeGroup" x="39" y="1161" width="253" height="86" rx="8"></rect>
            <rect id="Rectangle-12-Copy" stroke="#979797" fill="#F39A5D" sketch:type="MSShapeGroup" x="360" y="1161" width="329" height="86" rx="8"></rect>
            <text id="清除签名" sketch:type="MSTextLayer" font-family=".PingFang SC" font-size="44" font-weight="normal" fill="#2B2929">
                <tspan x="78" y="1219">清除签名</tspan>
            </text>
            <text id="签字确认" sketch:type="MSTextLayer" font-family=".PingFang SC" font-size="44" font-weight="normal" fill="#FFFFFF">
                <tspan x="437" y="1219">签字确认</tspan>
            </text>
        </g>
    </g>
</svg>