<?xml version="1.0" encoding="UTF-8" standalone="no"?>
<svg width="20px" height="20px" viewBox="0 0 20 20" version="1.1" xmlns="http://www.w3.org/2000/svg" xmlns:xlink="http://www.w3.org/1999/xlink">
    <!-- Generator: Sketch 39.1 (31720) - http://www.bohemiancoding.com/sketch -->
    <title>iconfont-gerenzhongxin (2) copy</title>
    <desc>Created with Sketch.</desc>
    <defs></defs>
    <g id="Page-1" stroke="none" stroke-width="1" fill="none" fill-rule="evenodd">
        <path d="M19.6,19.6 L18.7833413,19.6 C18.2578115,15.3039346 14.14875,11.8416587 9.8,11.8416587 C5.45125,11.8416587 1.34218848,15.3039346 0.816658691,19.6 L0,19.6 C0.429970215,15.638752 3.23318652,12.3916885 6.87918848,11.2936865 C5.00902979,10.2924404 3.675,8.43044043 3.675,6.125 C3.675,2.8175 6.56150195,0 9.8,0 C13.038498,0 15.925,2.8175 15.925,6.125 C15.925,8.43044043 14.5905635,10.2924404 12.7208115,11.2936865 C16.3664067,12.3916885 19.1700298,15.638752 19.6,19.6 L19.6,19.6 Z M15.1083413,6.125 C15.1083413,3.41897021 12.4496846,0.816658691 9.8,0.816658691 C7.15031543,0.816658691 4.49165869,3.41897021 4.49165869,6.125 C4.49165869,8.83102979 7.15031543,11.025 9.8,11.025 C12.4496846,11.025 15.1083413,8.83102979 15.1083413,6.125 L15.1083413,6.125 Z" id="iconfont-gerenzhongxin-(2)-copy" fill="#858585"></path>
    </g>
</svg>