<?xml version="1.0" encoding="UTF-8" standalone="no"?>
<svg width="10px" height="14px" viewBox="0 0 10 14" version="1.1" xmlns="http://www.w3.org/2000/svg" xmlns:xlink="http://www.w3.org/1999/xlink">
    <!-- Generator: Sketch 39.1 (31720) - http://www.bohemiancoding.com/sketch -->
    <title>火</title>
    <desc>Created with Sketch.</desc>
    <defs></defs>
    <g id="Page-1" stroke="none" stroke-width="1" fill="none" fill-rule="evenodd">
        <path d="M9.93252052,8.28759922 L9.93252052,8.9415322 C9.92282188,8.97334227 9.91098625,9.005134 9.90448396,9.03765994 C9.83796335,9.3832389 9.80050213,9.73784877 9.70017327,10.0732771 C9.40269355,11.0630423 8.84515879,11.8879201 8.06356903,12.5613649 C7.4607557,13.0811559 6.78236238,13.4556448 6.00683656,13.6399891 C5.75184089,13.7007091 5.4903612,13.7365206 5.23173082,13.7838778 L4.58137406,13.7838778 C4.5497028,13.7740943 4.51733747,13.7592631 4.48499041,13.7571155 C3.79830485,13.7141086 3.14763759,13.534445 2.53724433,13.2210065 C1.38334373,12.6303816 0.551032468,11.750933 0.170849472,10.4857252 C0.0899178906,10.2153487 0.0561096405,9.93193981 7.10542736e-15,9.6543129 L7.10542736e-15,9.03044623 C0.0244383786,8.87714111 0.0456621423,8.72245933 0.0744475568,8.56920927 C0.197461368,7.89972918 0.493498169,7.30693837 0.885571588,6.75961412 C1.25532535,6.24452213 1.6481111,5.74567476 1.99879635,5.21756872 C2.37791999,4.64463855 2.56137221,4.00876739 2.45382873,3.31151543 C2.43262323,3.17377577 2.41282413,3.03607283 2.39198393,2.89903068 C2.40599307,2.895433 2.42002048,2.89255118 2.43404789,2.8885864 C3.2804231,3.7799661 3.41817665,4.87417406 3.29731809,6.05658019 C3.32824049,6.02332002 3.35415833,6.0001921 3.37393917,5.97344814 C4.09225946,4.99708248 4.40084422,3.91843998 4.16668875,2.71035451 C4.0178119,1.94188322 3.69585727,1.25107405 3.16316272,0.676693797 C2.93185657,0.427995152 2.65203896,0.224487743 2.39413918,0 L2.66029468,0 C2.68224903,0.00903090512 2.70276047,0.0245963676 2.72504359,0.0267439609 C3.19337279,0.0672178344 3.6332636,0.212519958 4.05233248,0.416779942 C5.01087217,0.883083019 5.78784092,1.57244211 6.43781412,2.41323406 C7.3931392,3.65055984 8.01430871,5.02309222 8.13734079,6.60348226 C8.18448239,7.20675406 8.12331338,7.79308374 7.96325844,8.37144713 C7.90283829,8.59050165 7.81757794,8.8023241 7.73951394,9.03044623 C8.04954162,8.89779104 8.28515828,8.6949995 8.46718584,8.43216712 C9.0099626,7.64669864 9.16174356,6.77084769 9.03871148,5.80246667 C9.07865672,5.84907128 9.09918642,5.8675002 9.1131773,5.89064648 C9.44011824,6.40972162 9.6847212,6.963507 9.81242908,7.56536543 C9.86313233,7.80354637 9.89259354,8.04723397 9.93252052,8.28759922 L9.93252052,8.28759922 Z M4.81914597,7.13592019 C4.80690851,7.14460234 4.79359343,7.15361489 4.78102721,7.16229704 C4.76411396,7.40091852 4.75149294,7.63983369 4.72849748,7.87836338 C4.69467097,8.24238962 4.60798596,8.59340182 4.43857941,8.91981764 C4.23140114,9.3196371 3.88504466,9.56829904 3.50122695,9.76606118 C3.08721744,9.98072873 2.82645008,10.2873023 2.79262356,10.7713 C2.75739065,11.2690644 2.90630403,11.6872578 3.30553728,11.9931154 C3.67961981,12.2793694 4.11666131,12.3726888 4.57993114,12.3571233 C5.31945693,12.332894 5.87050766,11.9797159 6.09136631,11.2358226 C6.2499966,10.7018979 6.22409703,10.1643755 6.11799647,9.62687143 C5.97301004,8.89017351 5.70756687,8.20338419 5.25326509,7.60154412 C5.125612,7.43340775 4.96447944,7.29065704 4.81914597,7.13592019 L4.81914597,7.13592019 Z" id="火" fill="#E94128"></path>
    </g>
</svg>