<?xml version="1.0" encoding="UTF-8" standalone="no"?>
<svg width="22px" height="20px" viewBox="0 0 22 20" version="1.1" xmlns="http://www.w3.org/2000/svg" xmlns:xlink="http://www.w3.org/1999/xlink">
    <!-- Generator: Sketch 39.1 (31720) - http://www.bohemiancoding.com/sketch -->
    <title>iconfont-shouye copy 2</title>
    <desc>Created with Sketch.</desc>
    <defs></defs>
    <g id="Page-1" stroke="none" stroke-width="1" fill="none" fill-rule="evenodd">
        <g id="iconfont-shouye-copy-2" fill="#858585">
            <path d="M21.3755621,12.433239 C21.2071715,12.433239 21.0412971,12.3620126 20.9192078,12.2231132 L11.746159,1.6490566 C11.5399972,1.41157233 11.2703208,1.28150943 10.9872971,1.28150943 C10.7042734,1.28150943 10.4333696,1.4127673 10.2284658,1.65034591 L1.07361227,12.2244025 C0.850390516,12.4832704 0.463656904,12.5044969 0.212359833,12.2768868 C-0.0402259414,12.0469182 -0.062195258,11.6530189 0.161026499,11.3941824 L9.31471409,0.820125786 C9.75514365,0.311226415 10.3492664,0.031163522 10.9860391,0.031163522 L10.9872664,0.031163522 C11.6241311,0.031163522 12.2182538,0.311257862 12.6574561,0.818867925 L21.8317322,11.3928931 C22.0562427,11.6504717 22.0331074,12.0455975 21.7805523,12.2756918 C21.6646611,12.3806918 21.5195286,12.433239 21.3755621,12.433239" id="Fill-1"></path>
            <path d="M18.3059944,11.2416038 L18.3059944,17.4933648 C18.3059944,18.183522 17.7594616,18.7437421 17.0860837,18.7437421 L14.6461088,18.7437421 L14.6461088,13.7422956 C14.6461088,12.3619811 13.5517545,11.2415723 12.2060725,11.2415723 L9.76606695,11.2415723 C8.42053835,11.2415723 7.32615342,12.3619811 7.32615342,13.7422956 L7.32615342,18.7437107 L4.88614784,18.7437107 C4.21387448,18.7437107 3.66611437,18.1834906 3.66611437,17.4933333 L3.66611437,11.2416038 L2.44608089,11.2416038 L2.44608089,17.4933648 C2.44608089,18.8725157 3.54046583,19.9939623 4.88614784,19.9939623 L8.54618689,19.9939623 L8.54618689,13.7422956 C8.54618689,13.0534277 9.093947,12.4919497 9.76606695,12.4919497 L12.2060725,12.4919497 C12.8794812,12.4919497 13.4260753,13.0534277 13.4260753,13.7422956 L13.4260753,19.9939623 L17.0860837,19.9939623 C18.431643,19.9939623 19.5259972,18.8724843 19.5259972,17.4933648 L19.5259972,11.2416038 L18.3059944,11.2416038" id="Fill-2"></path>
        </g>
    </g>
</svg>