<?xml version="1.0" standalone="no"?><!DOCTYPE svg PUBLIC "-//W3C//DTD SVG 1.1//EN" "http://www.w3.org/Graphics/SVG/1.1/DTD/svg11.dtd"><svg height="16" width="16" xmlns:xlink="http://www.w3.org/1999/xlink" t="1493793843282" class="icon" style="" viewBox="0 0 1024 1024" version="1.1" xmlns="http://www.w3.org/2000/svg" p-id="1015"><defs><style type="text/css"></style></defs><path fill="#00ADB2" d="M512.697383 103.353926c-226.062666 0-409.322479 183.258791-409.322479 409.322479 0 226.062666 183.259814 409.322479 409.322479 409.322479 226.061642 0 409.322479-183.259814 409.322479-409.322479S738.759025 103.353926 512.697383 103.353926zM512.695337 881.065614C309.240575 881.065614 144.307152 716.13219 144.307152 512.677429c0-203.456808 164.933423-368.390231 368.388185-368.390231 203.456808 0 368.390231 164.933423 368.390231 368.390231C881.085568 716.13219 716.154191 881.065614 512.695337 881.065614z" p-id="1016"></path><path fill="#00ADB2" d="M512.697383 512.677429m-204.66124 0a200 200 0 1 0 409.322479 0 200 200 0 1 0-409.322479 0Z" p-id="1017"></path></svg>